<svg xmlns="http://www.w3.org/2000/svg" viewBox="0 0 100.24 100.24"><defs><style>.cls-1{fill:#ef8632;}.cls-2{fill:#333;}.cls-3{fill:#031c55;}</style></defs><g id="Layer_2" data-name="Layer 2"><g id="Layer_1-2" data-name="Layer 1"><circle class="cls-1" cx="77.61" cy="33.95" r="17.78"/><circle class="cls-1" cx="22.64" cy="59.82" r="17.78"/><path class="cls-2" d="M55,66.29a8.09,8.09,0,0,0,8.09,8.08h29.1a8.09,8.09,0,0,0,8.08-8.08V58.2H55Zm3.23-4.85H97v4.85a4.86,4.86,0,0,1-4.85,4.85H63.06a4.86,4.86,0,0,1-4.86-4.85Z"/><path class="cls-2" d="M92.16,0H63.06A8.1,8.1,0,0,0,55,8.08V55H58.2v-42H97V55h3.23V8.08A8.1,8.1,0,0,0,92.16,0Zm-34,9.7V8.08a4.86,4.86,0,0,1,4.86-4.85h29.1A4.86,4.86,0,0,1,97,8.08V9.7Z"/><rect class="cls-2" x="72.76" y="64.67" width="9.7" height="3.23"/><path class="cls-2" d="M79.22,45.27H76a4.86,4.86,0,0,1-4.85-4.85H67.91A8.08,8.08,0,0,0,76,48.5v3.24h3.23V48.5a8.08,8.08,0,1,0,0-16.16H76a4.85,4.85,0,1,1,0-9.7h3.23a4.85,4.85,0,0,1,4.85,4.85h3.24a8.1,8.1,0,0,0-8.09-8.09V16.17H76V19.4a8.09,8.09,0,0,0,0,16.17h3.23a4.85,4.85,0,0,1,0,9.7Z"/><path class="cls-2" d="M0,92.16a8.1,8.1,0,0,0,8.08,8.08H37.19a8.1,8.1,0,0,0,8.08-8.08V84.07H0Zm3.23-4.85H42v4.85A4.86,4.86,0,0,1,37.19,97H8.08a4.86,4.86,0,0,1-4.85-4.85Z"/><path class="cls-2" d="M37.19,25.87H8.08A8.1,8.1,0,0,0,0,34V80.84H3.23v-42H42v42h3.23V34A8.1,8.1,0,0,0,37.19,25.87Zm-34,9.7V34A4.86,4.86,0,0,1,8.08,29.1H37.19A4.86,4.86,0,0,1,42,34v1.62Z"/><rect class="cls-2" x="17.78" y="90.54" width="9.7" height="3.23"/><path class="cls-2" d="M17.78,42v3.23H14.55v29.1h3.23v3.24H21V74.37h3.23v3.24h3.24v-3.4a8.08,8.08,0,0,0,3.22-14.39,8.08,8.08,0,0,0-3.22-14.39V42H24.25v3.23H21V42ZM30.72,66.29a4.86,4.86,0,0,1-4.85,4.85H17.78v-9.7h8.09A4.85,4.85,0,0,1,30.72,66.29Zm0-12.94a4.85,4.85,0,0,1-4.85,4.85H17.78V48.5h8.09A4.86,4.86,0,0,1,30.72,53.35Z"/><rect class="cls-2" x="21.02" y="19.4" width="3.23" height="3.23"/><path class="cls-2" d="M24.25,12.93A4.86,4.86,0,0,1,29.1,8.08H40.42V4.85H29.1A8.09,8.09,0,0,0,21,12.93v3.24h3.23Z"/><rect class="cls-2" x="75.99" y="77.61" width="3.23" height="3.23"/><path class="cls-2" d="M76,87.31a4.86,4.86,0,0,1-4.85,4.85H59.82v3.23H71.14a8.09,8.09,0,0,0,8.08-8.08V84.07H76Z"/><path class="cls-3" d="M45.27,12.93a6.47,6.47,0,1,1,6.47-6.46A6.47,6.47,0,0,1,45.27,12.93Zm0-9.7A3.24,3.24,0,1,0,48.5,6.47,3.24,3.24,0,0,0,45.27,3.23Z"/><path class="cls-3" d="M55,100.24a6.47,6.47,0,1,1,6.47-6.47A6.47,6.47,0,0,1,55,100.24Zm0-9.7a3.24,3.24,0,1,0,3.23,3.23A3.23,3.23,0,0,0,55,90.54Z"/></g></g></svg>