<?xml version="1.0" encoding="UTF-8"?>
<svg id="Layer_1" data-name="Layer 1" xmlns="http://www.w3.org/2000/svg" xmlns:xlink="http://www.w3.org/1999/xlink" viewBox="0 0 116.22 73.14">
  <defs>
    <style>
      .cls-1 {
        fill: url(#linear-gradient);
      }

      .cls-2 {
        fill: #333;
      }
    </style>
    <linearGradient id="linear-gradient" x1="77.34" y1="62.69" x2="51.17" y2="29" gradientTransform="translate(0 74.14) scale(1 -1)" gradientUnits="userSpaceOnUse">
      <stop offset=".03" stop-color="#f9cfad"/>
      <stop offset="1" stop-color="#ef8632"/>
    </linearGradient>
  </defs>
  <path class="cls-2" d="m101.77,38.51h-19.11c-.52,0-1.01-.2-1.37-.57-.36-.36-.57-.86-.57-1.37s.2-1.01.57-1.37c.36-.36.86-.57,1.37-.57h19.11c.47-1.72,1.55-3.21,3.03-4.19s3.28-1.39,5.04-1.16,3.38,1.11,4.56,2.45c1.17,1.34,1.82,3.06,1.82,4.84s-.65,3.5-1.82,4.84c-1.17,1.34-2.79,2.21-4.56,2.45-1.76.24-3.56-.17-5.04-1.16-1.49-.98-2.56-2.47-3.03-4.19Zm3.62-1.94c0,.69.2,1.36.59,1.93.38.57.92,1.02,1.56,1.28.63.26,1.33.33,2,.2.67-.13,1.29-.46,1.78-.95s.82-1.1.95-1.78c.13-.67.07-1.37-.2-2-.26-.63-.71-1.18-1.28-1.56-.57-.38-1.24-.58-1.93-.58-.92,0-1.8.37-2.45,1.02-.65.65-1.02,1.53-1.02,2.45h0Z"/>
  <path class="cls-2" d="m0,36.57c0-1.78.65-3.5,1.82-4.84,1.17-1.34,2.79-2.21,4.56-2.45,1.77-.24,3.56.17,5.04,1.16,1.49.98,2.56,2.47,3.03,4.19h18.92c.52,0,1.01.2,1.37.57.36.36.57.86.57,1.37s-.2,1.01-.57,1.37c-.36.36-.86.57-1.37.57H14.45c-.47,1.72-1.55,3.21-3.03,4.19-1.48.98-3.28,1.39-5.04,1.16s-3.38-1.11-4.56-2.45C.65,40.07,0,38.35,0,36.57Zm3.89,0c0,.69.2,1.36.58,1.93.38.57.92,1.02,1.56,1.28.63.26,1.33.33,2,.2.67-.13,1.29-.46,1.78-.95.49-.49.82-1.1.95-1.78.13-.67.07-1.37-.2-2-.26-.63-.71-1.18-1.28-1.56-.57-.38-1.24-.58-1.93-.58-.92,0-1.8.37-2.45,1.02-.65.65-1.02,1.53-1.02,2.45Z"/>
  <path class="cls-2" d="m77.36,25.06c-.52,0-1.01-.2-1.37-.57-.36-.36-.57-.86-.57-1.37s.2-1.01.57-1.37c.36-.36.86-.57,1.37-.57h9.18c1.24,0,2.14-.36,2.83-1.13,1.25-1.39,1.58-3.87,1.61-5.6-1.72-.47-3.21-1.55-4.19-3.03-.98-1.48-1.4-3.27-1.16-5.04.24-1.76,1.11-3.38,2.45-4.56C89.42.65,91.14,0,92.92,0c1.78,0,3.5.64,4.84,1.82,1.34,1.17,2.21,2.79,2.45,4.55.24,1.76-.17,3.56-1.15,5.04-.98,1.49-2.47,2.56-4.19,3.04-.02,2.19-.43,5.77-2.6,8.19-.72.79-1.61,1.42-2.6,1.84-.99.42-2.06.62-3.13.59h-9.18Zm12.09-17.71c0,.69.2,1.36.58,1.93.38.57.92,1.01,1.56,1.28.63.26,1.33.33,2,.2.67-.13,1.29-.46,1.78-.95s.82-1.1.95-1.78c.13-.67.07-1.37-.2-2-.26-.63-.71-1.18-1.28-1.56-.57-.38-1.24-.58-1.93-.59-.92,0-1.8.37-2.45,1.02-.65.65-1.02,1.53-1.02,2.45Z"/>
  <path class="cls-2" d="m85.57,65.78c0-1.61.53-3.18,1.51-4.46.98-1.28,2.35-2.21,3.9-2.63-.03-1.73-.36-4.21-1.61-5.6-.69-.77-1.59-1.13-2.83-1.13l-8.56.48c-.52,0-1.01-.2-1.37-.57-.36-.36-.57-.86-.57-1.37s.2-1.01.57-1.37c.36-.36.86-.57,1.37-.57l8.56-.48c1.07-.03,2.14.17,3.13.59.99.42,1.88,1.05,2.6,1.84,2.17,2.42,2.58,6,2.6,8.19,1.32.36,2.52,1.09,3.45,2.09.93,1.01,1.56,2.25,1.82,3.6.26,1.35.14,2.74-.35,4.02-.49,1.28-1.32,2.4-2.41,3.23-1.09.83-2.39,1.34-3.76,1.47-1.36.13-2.74-.12-3.97-.73-1.23-.61-2.26-1.55-2.99-2.71-.72-1.16-1.11-2.51-1.11-3.88h0Zm3.89,0c0,.69.2,1.36.58,1.93.38.57.92,1.02,1.56,1.28.63.26,1.33.33,2,.2.67-.13,1.29-.46,1.78-.95s.82-1.1.95-1.78c.13-.67.07-1.37-.2-2-.26-.63-.71-1.18-1.28-1.56-.57-.38-1.24-.58-1.93-.58-.92,0-1.8.37-2.45,1.02-.65.65-1.02,1.53-1.02,2.45h0Z"/>
  <path class="cls-2" d="m23.82,22.64c-2.18-2.44-2.58-6.03-2.6-8.23-1.71-.5-3.18-1.61-4.13-3.11-.96-1.5-1.33-3.3-1.06-5.06.27-1.76,1.17-3.36,2.53-4.51C19.92.58,21.65-.03,23.43,0c1.78.03,3.49.71,4.81,1.91,1.32,1.2,2.16,2.83,2.36,4.6.2,1.77-.24,3.55-1.25,5.02-1.01,1.47-2.52,2.52-4.24,2.96.03,1.73.36,4.19,1.61,5.57.69.77,1.59,1.13,2.83,1.13l9.42-.48c.52,0,1.01.2,1.37.57.36.36.57.86.57,1.37s-.2,1.01-.57,1.37c-.36.36-.86.57-1.37.57l-9.42.48c-1.07.03-2.14-.17-3.13-.59-.99-.42-1.88-1.05-2.6-1.84Zm-3.99-15.28c0,.69.2,1.36.59,1.93.38.57.92,1.01,1.56,1.28.63.26,1.33.33,2,.2.67-.13,1.29-.46,1.78-.95.48-.49.81-1.1.95-1.78.13-.67.06-1.37-.2-2-.26-.63-.71-1.18-1.28-1.56-.57-.38-1.24-.58-1.93-.58-.92,0-1.8.37-2.45,1.02-.65.65-1.02,1.53-1.02,2.45h0Z"/>
  <path class="cls-2" d="m15.94,65.78c0-1.59.52-3.13,1.47-4.4.95-1.27,2.29-2.2,3.81-2.65.02-2.19.42-5.79,2.6-8.23.72-.79,1.61-1.42,2.6-1.84.99-.42,2.06-.62,3.13-.59h9.09c.52,0,1.01.2,1.37.57.36.36.57.86.57,1.37s-.2,1.01-.57,1.37c-.36.36-.86.57-1.37.57h-9.09c-1.24,0-2.14.36-2.83,1.13-1.24,1.38-1.58,3.84-1.61,5.57,1.33.34,2.55,1.05,3.5,2.04.95.99,1.61,2.24,1.89,3.58.28,1.35.18,2.75-.3,4.04-.47,1.29-1.3,2.43-2.39,3.27-1.09.84-2.39,1.37-3.76,1.51-1.37.14-2.75-.1-3.99-.71-1.24-.6-2.28-1.54-3.01-2.71-.73-1.17-1.12-2.52-1.12-3.89h0Zm3.89,0c0,.69.2,1.36.58,1.93.38.57.92,1.02,1.56,1.28.63.26,1.33.33,2,.2.67-.13,1.29-.46,1.78-.95.49-.49.82-1.1.95-1.78.13-.67.07-1.37-.2-2-.26-.63-.71-1.18-1.28-1.56s-1.24-.58-1.93-.58c-.92,0-1.8.37-2.45,1.02-.65.65-1.02,1.53-1.02,2.45h0Z"/>
  <path class="cls-1" d="m57.78,65.7c-5.79,0-11.46-1.72-16.26-4.97-4.67-3.16-8.33-7.6-10.53-12.79-1.89-4.46-2.63-9.31-2.16-14.13.47-4.82,2.13-9.44,4.84-13.45,3.16-4.68,7.6-8.33,12.79-10.53,4.46-1.89,9.31-2.63,14.13-2.16,4.82.47,9.44,2.13,13.45,4.84,4.67,3.16,8.33,7.6,10.54,12.79,1.89,4.46,2.63,9.31,2.16,14.13-.47,4.82-2.13,9.44-4.84,13.45-3.16,4.68-7.6,8.33-12.79,10.53-3.58,1.52-7.43,2.29-11.32,2.29Zm-9.1-10.59c2.91,1.48,6.13,2.26,9.4,2.27,3.27,0,6.49-.76,9.4-2.24l.06.05s.08-.09.13-.15c3.39-1.75,6.23-4.41,8.21-7.66,1.98-3.26,3.03-7,3.04-10.81,0-3.87-1.08-7.66-3.12-10.95-1.98-3.19-4.79-5.79-8.13-7.53-.02-.02-.03-.04-.05-.06h-.01s-.04.02-.04.02c-2.94-1.5-6.19-2.28-9.49-2.28-3.3,0-6.55.79-9.48,2.31l-.07-.05-.02.02v.02s-.07.07-.09.11c-3.3,1.75-6.07,4.34-8.03,7.52-1.84,2.99-2.89,6.39-3.06,9.89-.17,3.5.55,6.99,2.1,10.14l-.09.1c.08.07.16.14.24.21,1.96,3.81,5.03,6.94,8.82,8.94.06.08.13.15.19.23l.09-.08h0Zm10.64-.29v-4.4c2.32-.06,4.62-.29,6.91-.67.56-.1,1.1-.2,1.63-.31-.42,1.29-1.03,2.51-1.81,3.62-2.11,1.02-4.39,1.62-6.73,1.77Zm-2.51,0c-2.36-.16-4.66-.79-6.78-1.83-.73-1.05-1.3-2.19-1.71-3.39,2.8.54,5.64.82,8.48.85v4.38h0Zm13.41-4.55c.17-.49.34-1.01.49-1.57.53-.16,1.04-.33,1.51-.51-.61.74-1.28,1.44-2,2.08h0Zm-24.35-.11c-.58-.52-1.12-1.07-1.62-1.66.39.14.81.27,1.23.4.12.43.26.85.4,1.26h0Zm10.94-2.21c-3.13-.02-6.24-.39-9.29-1.1-.67-2.97-1.02-6.01-1.05-9.06h10.34v10.16h0Zm2.51-.02v-10.13h10.34c-.03,2.99-.37,5.96-1.01,8.88-.9.23-1.86.43-2.85.6-2.14.36-4.31.58-6.48.65Zm-14.53-1.9c-1.14-.4-2.22-.95-3.22-1.64-.99-2.07-1.57-4.31-1.72-6.6h4.13c.03,2.76.3,5.52.81,8.23h0Zm26.59-.19c.48-2.65.74-5.34.77-8.04h4.22c-.14,2.2-.69,4.36-1.61,6.37-1.05.69-2.19,1.25-3.37,1.67h0Zm4.98-10.55h-4.23c-.06-2.3-.29-4.6-.67-6.87v-.05s-.02-.05-.02-.05c1.33.47,2.58,1.12,3.73,1.94l.07-.1c.62,1.65.99,3.37,1.12,5.13h0Zm-6.73,0h-10.31v-9.09c2.17.07,4.34.29,6.48.65,1.01.17,2,.38,2.92.62.09.43.18.89.26,1.37.36,2.13.58,4.29.65,6.45h0Zm-12.82,0h-10.31c.07-2.16.29-4.31.65-6.45.09-.51.19-1.03.3-1.55,3.07-.72,6.21-1.09,9.37-1.12v9.11Zm-12.81,0h-4.15c.12-1.75.5-3.48,1.11-5.12l.03.03c1.11-.91,2.37-1.61,3.73-2.07l-.03.15-.03.15c-.38,2.27-.61,4.57-.67,6.87h0Zm29.27-8.94c-.75-.32-1.57-.62-2.44-.89-.25-.98-.53-1.92-.85-2.79,1.25,1.07,2.36,2.31,3.29,3.68h0Zm-30.13-.3c.85-1.2,1.84-2.3,2.95-3.27-.28.79-.53,1.63-.76,2.5-.78.24-1.52.5-2.2.78h0Zm24.88-1.32c-.59-.13-1.2-.25-1.8-.35-2.28-.39-4.59-.61-6.91-.67v-5.39c1-.27,2.06-.31,3.08-.12,1.02.19,1.99.61,2.83,1.23.84.62,1.53,1.41,2.01,2.33.49.92.76,1.94.8,2.98h0Zm-19.88-.16c.06-1.02.34-2.02.83-2.92.49-.9,1.18-1.68,2.01-2.28.83-.6,1.79-1.01,2.79-1.19,1.01-.18,2.04-.14,3.03.13v5.36c-2.91.03-5.81.33-8.66.89Z"/>
</svg>