<svg width="128" height="128" viewBox="0 0 128 128" fill="none" xmlns="http://www.w3.org/2000/svg">
<g id="secure 1" clip-path="url(#clip0_1_100)">
<g id="Group 654">
<g id="Group 661">
<path id="Rectangle 1178" d="M57.5795 11.0894H19.7813C14.671 11.0894 10.5283 15.2321 10.5283 20.3424V50.2874C10.5283 55.3977 14.671 59.5405 19.7813 59.5405H57.5795C62.6898 59.5405 66.8325 55.3977 66.8325 50.2874V20.3424C66.8325 15.2321 62.6898 11.0894 57.5795 11.0894Z" fill="url(#paint0_linear_1_100)"/>
<path id="Line 264" d="M58.8375 26.1417H19.5508C19.0395 26.1417 18.5492 25.9386 18.1877 25.5771C17.8261 25.2156 17.623 24.7253 17.623 24.214C17.623 23.7027 17.8261 23.2124 18.1877 22.8509C18.5492 22.4894 19.0395 22.2863 19.5508 22.2863H58.8375C59.3488 22.2863 59.8391 22.4894 60.2006 22.8509C60.5621 23.2124 60.7652 23.7027 60.7652 24.214C60.7652 24.7253 60.5621 25.2156 60.2006 25.5771C59.8391 25.9386 59.3488 26.1417 58.8375 26.1417Z" fill="white"/>
<path id="Line 265" d="M58.8375 37.2426H19.5508C19.0395 37.2426 18.5492 37.0395 18.1877 36.678C17.8261 36.3165 17.623 35.8262 17.623 35.3149C17.623 34.8037 17.8261 34.3133 18.1877 33.9518C18.5492 33.5903 19.0395 33.3872 19.5508 33.3872H58.8375C59.3488 33.3872 59.8391 33.5903 60.2006 33.9518C60.5621 34.3133 60.7652 34.8037 60.7652 35.3149C60.7652 35.8262 60.5621 36.3165 60.2006 36.678C59.8391 37.0395 59.3488 37.2426 58.8375 37.2426Z" fill="white"/>
<path id="Subtraction 408" d="M58.8381 48.3434H35.3671V44.4879H58.8381C59.3492 44.4886 59.839 44.6921 60.2003 45.0535C60.5617 45.4148 60.7652 45.9046 60.7659 46.4157C60.7653 46.9268 60.5617 47.4168 60.2003 47.7782C59.8389 48.1396 59.3492 48.3429 58.8381 48.3434ZM30.9078 48.3434H27.0279V44.4879H30.9078V48.3434ZM22.5701 48.3434H19.5512C19.0402 48.3427 18.5504 48.1396 18.189 47.7782C17.8277 47.4169 17.6242 46.9267 17.6235 46.4157C17.6244 45.9046 17.8277 45.4148 18.189 45.0535C18.5504 44.6921 19.0402 44.4888 19.5512 44.4879H22.5693V48.3434H22.5701Z" fill="white"/>
<path id="Path 728" d="M67.542 32.4588C68.6257 32.2083 69.7318 32.0678 70.8437 32.0392C72.9885 31.9858 75.1229 32.3553 77.125 33.1266C80.1002 34.2699 82.6799 36.2516 84.5518 38.8314C85.1847 39.7054 85.7296 40.64 86.1784 41.6213C86.6402 42.6333 86.9987 43.6893 87.2487 44.7732L90.0957 57.105L87.7587 57.6445C87.7523 57.6167 84.9198 45.3476 84.9117 45.3127C84.4971 43.517 83.7329 41.8205 82.6627 40.3202C81.5925 38.8198 80.2373 37.5449 78.6744 36.5683C77.1115 35.5917 75.3715 34.9325 73.5539 34.6283C71.7362 34.3242 69.8764 34.381 68.0807 34.7955C66.285 35.2101 64.5886 35.9743 63.0882 37.0445C61.5878 38.1147 60.313 39.47 59.3364 41.0329C58.3598 42.5957 57.7005 44.3357 57.3964 46.1534C57.0922 47.971 57.149 49.8308 57.5636 51.6265C57.5707 51.6573 60.4035 63.9275 60.4106 63.9583L58.0736 64.4979C58.0659 64.4644 55.2334 52.1953 55.2266 52.166C54.9762 51.0824 54.8356 49.9762 54.807 48.8644C54.7539 46.7194 55.1238 44.5849 55.8955 42.5829C57.0387 39.6072 59.0204 37.0269 61.6005 35.1548C62.4744 34.5217 63.409 33.9768 64.3903 33.5279C65.4023 33.0665 66.4582 32.7084 67.542 32.4588Z" fill="#333333"/>
<path id="Subtraction 407" d="M63.0594 116.91C61.2868 116.911 59.527 116.611 57.8546 116.023C56.2067 115.446 54.6652 114.602 53.2921 113.523C51.9083 112.439 50.7154 111.131 49.7627 109.654C48.7768 108.124 48.0643 106.434 47.6569 104.659L42.6596 83.0144C42.1808 80.9577 42.1232 78.8255 42.4898 76.7459C42.8421 74.7366 43.5803 72.8148 44.6637 71.0863C45.7425 69.3554 47.1461 67.8497 48.7974 66.6526C50.5067 65.412 52.4491 64.5293 54.5078 64.0577L55.9197 63.732C55.2358 60.7633 53.5428 53.4338 53.3682 52.6782C53.0781 51.4432 52.9156 50.182 52.8828 48.9139C52.8515 47.7081 52.9401 46.5022 53.1479 45.3141C53.3526 44.1454 53.6709 42.9996 54.0982 41.8928C54.52 40.795 55.0457 39.7401 55.6679 38.7422C56.2925 37.7456 57.0097 36.8102 57.8102 35.9485C58.6188 35.0803 59.5098 34.2925 60.4706 33.5965C61.4476 32.8892 62.4918 32.2798 63.588 31.7768C64.7183 31.2619 65.8972 30.8617 67.1072 30.5818C68.3178 30.3019 69.5537 30.1448 70.7959 30.1134C70.9455 30.1095 71.098 30.1077 71.2496 30.1077C72.3046 30.1082 73.3577 30.1994 74.3971 30.3803C75.565 30.5843 76.7102 30.9016 77.8166 31.3276C78.9147 31.7501 79.9699 32.2769 80.9676 32.9007C81.9652 33.5236 82.9007 34.2408 83.7612 35.0426C84.6295 35.8511 85.417 36.7422 86.1129 37.703C86.8213 38.6794 87.4312 39.7236 87.9333 40.8205C88.4484 41.9513 88.8486 43.1308 89.1283 44.3416L91.6991 55.4715L93.1106 55.1458C94.2771 54.8761 95.4702 54.7393 96.6675 54.7384C98.44 54.7379 100.2 55.0381 101.872 55.6254C103.52 56.2028 105.061 57.0473 106.434 58.1254C107.818 59.2096 109.011 60.5176 109.963 61.9952C110.949 63.5258 111.661 65.2159 112.069 66.9903L114.05 75.5727L110.294 76.4402L108.313 67.8566C107.689 65.2315 106.203 62.8914 104.091 61.2117C101.98 59.5319 99.3656 58.6095 96.6675 58.5923C95.7622 58.5928 94.86 58.6962 93.9781 58.9007L55.3761 67.8126C52.2896 68.5293 49.6133 70.4408 47.9344 73.1281C46.2555 75.8153 45.7108 79.0587 46.4201 82.1469L51.416 103.791C52.0394 106.415 53.5259 108.755 55.637 110.435C57.7481 112.114 60.3617 113.037 63.0594 113.054C63.9651 113.054 64.868 112.95 65.7503 112.746L104.351 103.834C105.881 103.484 107.326 102.834 108.603 101.922C109.881 101.01 110.964 99.8532 111.792 98.5193C112.628 97.191 113.193 95.7099 113.452 94.162C113.712 92.614 113.663 91.0298 113.306 89.5012L113.169 88.9105L116.926 88.0437L117.062 88.6334C117.541 90.6903 117.599 92.823 117.233 94.9029C116.881 96.9121 116.143 98.8339 115.06 100.562C113.981 102.293 112.578 103.799 110.927 104.996C109.217 106.237 107.275 107.119 105.216 107.59L66.6151 116.504C65.449 116.773 64.2563 116.91 63.0594 116.91ZM71.236 36.3623C70.3201 36.3631 69.4073 36.4679 68.515 36.6744C65.3892 37.4005 62.6789 39.3366 60.9785 42.0581C59.278 44.7795 58.726 48.0644 59.4438 51.1921L62.0157 62.3231L85.6038 56.877L83.059 45.8529C82.4603 43.1628 80.9631 40.7572 78.8139 39.0321C76.6648 37.307 73.9919 36.365 71.236 36.3623ZM112.167 84.5663L111.295 80.7851L115.051 79.918L115.924 83.6996L112.168 84.5667L112.167 84.5663Z" fill="#333333"/>
<path id="Union 442" d="M77.566 101.082L78.1233 86.4599C76.5949 86.3832 75.1336 85.8086 73.9622 84.8238C72.7908 83.839 71.9737 82.4981 71.6356 81.0056C71.2078 79.2053 71.5126 77.3088 72.4829 75.7332C73.4533 74.1576 75.0096 73.0319 76.8098 72.6036C78.6157 72.199 80.5083 72.5284 82.0713 73.5191C83.6344 74.5099 84.7399 76.0809 85.1447 77.8867C85.4952 79.3763 85.3488 80.9397 84.7279 82.3383C84.107 83.7369 83.0456 84.8941 81.7057 85.6332L88.6158 98.5314L77.566 101.082Z" fill="url(#paint1_linear_1_100)"/>
</g>
</g>
</g>
<defs>
<linearGradient id="paint0_linear_1_100" x1="62.7223" y1="11.0894" x2="38.9993" y2="43.4969" gradientUnits="userSpaceOnUse">
<stop stop-color="#F9CFAD"/>
<stop offset="1" stop-color="#EF8632"/>
</linearGradient>
<linearGradient id="paint1_linear_1_100" x1="79.9469" y1="73.3693" x2="71.1196" y2="88.5945" gradientUnits="userSpaceOnUse">
<stop stop-color="#F9CFAD"/>
<stop offset="1" stop-color="#EF8632"/>
</linearGradient>
<clipPath id="clip0_1_100">
<rect width="128" height="128" fill="white"/>
</clipPath>
</defs>
</svg>
