<svg xmlns="http://www.w3.org/2000/svg" viewBox="0 0 108.01 108.1"><defs><style>.cls-1{fill:#333;}.cls-2{fill:#031c55;}.cls-3{fill:#ef8632;}</style></defs><g id="Layer_2" data-name="Layer 2"><g id="Layer_1-2" data-name="Layer 1"><path class="cls-1" d="M12.2,40.07H45.3v3.48H12.2Z"/><path class="cls-1" d="M12.2,47H45.3v3.48H12.2Z"/><path class="cls-1" d="M12.2,54H45.3v3.48H12.2Z"/><path class="cls-1" d="M12.2,26.13h3.48v3.49H12.2Z"/><path class="cls-1" d="M19.16,26.13h3.49v3.49H19.16Z"/><path class="cls-1" d="M26.13,26.13h3.49v3.49H26.13Z"/><path class="cls-1" d="M103.35,41.81a3.43,3.43,0,0,0-.56.06V24.39a5.24,5.24,0,0,0-5.23-5.23H87.11v3.49H97.56a1.74,1.74,0,0,1,1.74,1.74V33.1H8.71V24.39a1.74,1.74,0,0,1,1.74-1.74H66.2V19.16H10.45a5.23,5.23,0,0,0-5.22,5.23V66.2H8.71V36.59H99.3v6.48l-2.16.87a19,19,0,0,1-7.06,1.36h-.17a19,19,0,0,1-10.55-3.2l-1-.64-1,.64a18.94,18.94,0,0,1-10.54,3.2h-.18a18.93,18.93,0,0,1-7-1.36l-4.48-1.79a4.53,4.53,0,0,0-1.74-.34,4.67,4.67,0,0,0-4.66,4.67V68.36a42,42,0,0,0,.3,5L52.54,73a39.29,39.29,0,0,1-.27-4.6V46.48a1.2,1.2,0,0,1,1.61-1.1l4.48,1.79a22.35,22.35,0,0,0,8.35,1.61h.18A22.38,22.38,0,0,0,78.4,45.61a22.34,22.34,0,0,0,11.5,3.17h.18a22.35,22.35,0,0,0,8.35-1.61l4.48-1.79a1.2,1.2,0,0,1,1.62,1.1V68.36A37.83,37.83,0,0,1,78.4,104.45,38,38,0,0,1,54.08,80L50.76,81A41.44,41.44,0,0,0,62.66,99.3H8.71V90.59H5.23v12.2H67.17a41.35,41.35,0,0,0,10.71,5.14l.52.17.52-.17a41.45,41.45,0,0,0,10.72-5.14h13.15V88.53A41.43,41.43,0,0,0,108,68.36V46.48A4.67,4.67,0,0,0,103.35,41.81Zm-4,57.49H94.16a39.81,39.81,0,0,0,5.14-5.49Z"/><path class="cls-1" d="M97.56,52.43h3.49v3.32H97.56Z"/><path class="cls-1" d="M97.56,68.36A30.81,30.81,0,0,1,86,92.53l2.18,2.72a34.3,34.3,0,0,0,12.85-26.89V59.23H97.56Z"/><path class="cls-1" d="M78.4,54a8.69,8.69,0,0,0-5.23,15.64v5.26h3.49V67.72l-.87-.51a5.16,5.16,0,0,1-2.62-4.49,5.23,5.23,0,1,1,10.45,0A5.15,5.15,0,0,1,81,67.21l-.87.51V92.34H76.66V81.88H73.17V95.82H83.62V69.65A8.68,8.68,0,0,0,78.4,54Z"/><path class="cls-2" d="M90.08,11.93A13.9,13.9,0,0,0,88.8,8.84l1.06-2.13L85.62,2.47,83.5,3.54a13.63,13.63,0,0,0-3.09-1.28L79.65,0h-6l-.75,2.26a13.26,13.26,0,0,0-3.09,1.28L67.69,2.47,63.45,6.71l1.06,2.13a13.9,13.9,0,0,0-1.28,3.09L61,12.68v6l2.25.75a13.9,13.9,0,0,0,1.28,3.09l-1.06,2.12,4.24,4.25,2.13-1.07a13.9,13.9,0,0,0,3.09,1.28l.75,2.26h6l.75-2.26a13.71,13.71,0,0,0,3.09-1.28l2.13,1.07,4.24-4.25L88.8,22.52a13.9,13.9,0,0,0,1.28-3.09l2.26-.75v-6Zm-13.42,9a5.23,5.23,0,1,1,5.22-5.23A5.23,5.23,0,0,1,76.66,20.91Z"/><path class="cls-3" d="M76.66,22.65a7,7,0,1,1,7-7A7,7,0,0,1,76.66,22.65Zm0-10.45a3.48,3.48,0,1,0,3.48,3.48A3.48,3.48,0,0,0,76.66,12.2Z"/><path class="cls-3" d="M17.42,95.82A17.42,17.42,0,1,1,33.37,71.43h39.8l7,7-7,7h-7L62.72,82.6l-3.49,2.77H55.75L52.27,82.6l-3.49,2.77H33.37A17.44,17.44,0,0,1,17.42,95.82Z"/><path class="cls-1" d="M25.85,74.78v-.66a6,6,0,0,0-6-6h-.66V65.52H16.58v2.64h-.66a6,6,0,1,0,0,11.92h4a3.31,3.31,0,0,1,0,6.62h-4a3.32,3.32,0,0,1-3.31-3.31v-.67H10v.67a6,6,0,0,0,6,6h.66V92h2.65V89.34h.66a6,6,0,1,0,0-11.91h-4a3.31,3.31,0,1,1,0-6.62h4a3.31,3.31,0,0,1,3.31,3.31v.66Z"/></g></g></svg>