<svg xmlns="http://www.w3.org/2000/svg" viewBox="0 0 108.12 108.12"><defs><style>.cls-1{fill:#ef8632;}.cls-2{fill:#333;}.cls-3{fill:#031c55;}</style></defs><g id="Layer_2" data-name="Layer 2"><g id="Layer_1-2" data-name="Layer 1"><path class="cls-1" d="M47.11,59l4.45,19.47h5L61,59a17.38,17.38,0,0,0-13.9,0Z"/><path class="cls-2" d="M92.42,41.85V34.79a17.44,17.44,0,1,0-3.48,0v7.06a1.76,1.76,0,0,1-1.75,1.75H78a26,26,0,0,0-29.79-15l1.94-7.24-3.37-.91-2.51,9.38A26.14,26.14,0,0,0,40.15,32L35.67,15.24l-3.37.91,4.83,18a25.91,25.91,0,0,0-2,1.91L10.75,11.69,8.28,14.16l24.61,24.6c-.47.65-.91,1.31-1.32,2L12.65,35.69l-.9,3.37,18.19,4.87A25.11,25.11,0,0,0,28.89,47L17,50.21l.9,3.37,10.18-2.73A24.87,24.87,0,0,0,28.87,61H20.93a5.25,5.25,0,0,0-5.24,5.24v7.06a17.45,17.45,0,1,0,3.49,0V66.27a1.75,1.75,0,0,1,1.75-1.75H30.1a26.19,26.19,0,0,0,24,15.7,25.87,25.87,0,0,0,5.81-.68L58,86.7l3.37.9,2.49-9.29A25.77,25.77,0,0,0,68,76.16l4.46,16.63,3.37-.9L71,74A26.44,26.44,0,0,0,73,72L97.37,96.35l2.46-2.47L75.27,69.31c.47-.65.9-1.32,1.31-2l18.88,5.06L96.37,69,78.2,64.11a25.25,25.25,0,0,0,1-3.11l11.83-3.17-.9-3.37L80,57.19a27,27,0,0,0,.21-3.13,26,26,0,0,0-1-7h8a5.23,5.23,0,0,0,5.23-5.23Zm-7-26.16a5.23,5.23,0,1,1,5.23,5.24A5.24,5.24,0,0,1,85.45,15.69Zm5.23,15.7a13.82,13.82,0,0,1-8.36-2.81,10.47,10.47,0,0,1,16.72,0,13.84,13.84,0,0,1-8.36,2.81Zm-14-13.95a14,14,0,1,1,24.82,8.73,14,14,0,0,0-5.11-4,8.72,8.72,0,1,0-11.52,0,14,14,0,0,0-5.11,4,13.88,13.88,0,0,1-3.08-8.72ZM9.08,101.82a10.46,10.46,0,0,1,16.71,0,13.83,13.83,0,0,1-16.71,0Zm3.13-12.88a5.23,5.23,0,1,1,5.23,5.23A5.24,5.24,0,0,1,12.21,88.94Zm19.18,1.74a13.93,13.93,0,0,1-3.08,8.73,13.94,13.94,0,0,0-5.12-4,8.72,8.72,0,1,0-11.51,0,14,14,0,0,0-5.11,4,13.95,13.95,0,1,1,24.82-8.73ZM54.06,31.39A22.64,22.64,0,0,1,71.92,68,19.3,19.3,0,0,0,61,57.12a12.21,12.21,0,1,0-13.86,0A19.27,19.27,0,0,0,36.2,68,22.64,22.64,0,0,1,54.06,31.39ZM45.34,47.08a8.72,8.72,0,1,1,8.72,8.72A8.73,8.73,0,0,1,45.34,47.08Zm-6.42,23.8a15.68,15.68,0,0,1,30.28,0,22.52,22.52,0,0,1-30.28,0Z"/><path class="cls-1" d="M7,15.62a5.24,5.24,0,1,1,5.23-5.24A5.25,5.25,0,0,1,7,15.62Z"/><path class="cls-3" d="M8.8,41.85A5.23,5.23,0,1,1,14,36.62,5.24,5.24,0,0,1,8.8,41.85Z"/><path class="cls-3" d="M48.91,22.67a5.23,5.23,0,1,1,5.23-5.23,5.23,5.23,0,0,1-5.23,5.23Z"/><path class="cls-3" d="M33.21,17.44a5.23,5.23,0,1,1,5.23-5.23A5.24,5.24,0,0,1,33.21,17.44Z"/><path class="cls-1" d="M14,57.55a5.24,5.24,0,1,1,5.23-5.23A5.24,5.24,0,0,1,14,57.55Z"/><path class="cls-1" d="M101.14,102.89a5.24,5.24,0,1,1,5.23-5.24A5.24,5.24,0,0,1,101.14,102.89Z"/><path class="cls-3" d="M99.32,76.65a5.23,5.23,0,1,1,5.23-5.23A5.23,5.23,0,0,1,99.32,76.65Z"/><path class="cls-3" d="M59.21,95.83a5.23,5.23,0,1,1,5.23-5.23A5.23,5.23,0,0,1,59.21,95.83Z"/><path class="cls-3" d="M74.9,101.06a5.23,5.23,0,1,1,5.24-5.23A5.23,5.23,0,0,1,74.9,101.06Z"/><path class="cls-1" d="M94.09,61a5.24,5.24,0,1,1,5.23-5.24A5.24,5.24,0,0,1,94.09,61Z"/></g></g></svg>