<svg xmlns="http://www.w3.org/2000/svg" viewBox="0 0 84.7 84.7"><defs><style>.cls-1{fill:#ef8632;}.cls-2{fill:#dae6f7;}.cls-3{fill:#f4ebe4;}.cls-4{fill:#333;}.cls-5{fill:#021747;}</style></defs><g id="Layer_2" data-name="Layer 2"><g id="Layer_1-2" data-name="Layer 1"><circle class="cls-1" cx="5.29" cy="5.49" r="4.15"/><circle class="cls-1" cx="79.44" cy="5.49" r="4.15"/><circle class="cls-1" cx="5.29" cy="79.09" r="4.15"/><circle class="cls-1" cx="79.44" cy="79.09" r="4.15"/><path class="cls-2" d="M60.11,42.35A17.76,17.76,0,1,1,42.35,24.59,17.76,17.76,0,0,1,60.11,42.35Z"/><path class="cls-3" d="M63.1,35.52a21.57,21.57,0,0,1,0,13.66H84.7V35.52Z"/><path class="cls-3" d="M20.49,42.35a21.72,21.72,0,0,1,1.11-6.83H0V49.18H21.6A21.72,21.72,0,0,1,20.49,42.35Z"/><path class="cls-4" d="M42.35,2.73a13.57,13.57,0,0,1,9.66,4L53.94,4.8a16.39,16.39,0,0,0-23.18,0l1.93,1.93A13.57,13.57,0,0,1,42.35,2.73Z"/><path class="cls-4" d="M50.08,8.66a10.94,10.94,0,0,0-15.46,0l1.93,1.94a8.21,8.21,0,0,1,11.6,0Z"/><path class="cls-4" d="M38.48,12.53l1.94,1.93a2.8,2.8,0,0,1,3.86,0l1.93-1.93a5.47,5.47,0,0,0-7.73,0Z"/><path class="cls-4" d="M34.62,76a10.94,10.94,0,0,0,15.46,0L48.15,74.1a8.21,8.21,0,0,1-11.6,0Z"/><path class="cls-4" d="M46.21,72.17l-1.93-1.93a2.8,2.8,0,0,1-3.86,0l-1.93,1.93a5.46,5.46,0,0,0,7.72,0Z"/><path class="cls-4" d="M80.6,74V54.64H71V49.18h8.19V46.45H68.31v8.19H62a23.07,23.07,0,0,0,0-24.59h6.29v8.2H79.23V35.52H71V30.05H80.6V10.73a5.47,5.47,0,1,0-2.73,0v8.4H65.57V13.41a4.1,4.1,0,1,0-2.73,0v8.45h15v5.46H60a23.17,23.17,0,0,0-35.35,0H6.83V21.86h15V13.41a4.11,4.11,0,1,0-2.73,0v5.72H6.83v-8.4a5.47,5.47,0,1,0-2.73,0V30.05h9.56v5.47H5.46v2.73H16.39v-8.2h6.29a23.07,23.07,0,0,0,0,24.59H16.39V46.45H5.46v2.73h8.2v5.46H4.1V74a5.47,5.47,0,1,0,2.73,0V65.57h12.3v5.72a4.1,4.1,0,1,0,2.73,0V62.84h-15V57.38H24.67a23.17,23.17,0,0,0,35.35,0H77.87v5.46h-15v8.45a4.11,4.11,0,1,0,2.73,0V65.57h12.3V74a5.47,5.47,0,1,0,2.73,0ZM64.21,8.2a1.37,1.37,0,1,1-1.37,1.36A1.36,1.36,0,0,1,64.21,8.2ZM76.5,5.46A2.74,2.74,0,1,1,79.23,8.2,2.74,2.74,0,0,1,76.5,5.46Zm-56,2.74a1.37,1.37,0,1,1-1.36,1.36A1.37,1.37,0,0,1,20.49,8.2ZM2.73,5.46A2.74,2.74,0,1,1,5.46,8.2,2.74,2.74,0,0,1,2.73,5.46Zm17.76,71a1.37,1.37,0,1,1,1.37-1.36A1.36,1.36,0,0,1,20.49,76.5ZM8.2,79.23A2.74,2.74,0,1,1,5.46,76.5,2.74,2.74,0,0,1,8.2,79.23ZM57.78,55.79a22.21,22.21,0,0,0-6.25-4.5,26.28,26.28,0,0,0,1.75-8.94,26.28,26.28,0,0,0-1.75-8.94,22.21,22.21,0,0,0,6.25-4.5,20.38,20.38,0,0,1,0,26.88ZM34.15,42.35a23.42,23.42,0,0,1,1.55-7.91,21,21,0,0,0,13.3,0,23.42,23.42,0,0,1,1.55,7.91A23.42,23.42,0,0,1,49,50.26a21,21,0,0,0-13.3,0A23.42,23.42,0,0,1,34.15,42.35Zm8.2-19.68A49.06,49.06,0,0,1,48,31.9a18.21,18.21,0,0,1-5.6.89,17.91,17.91,0,0,1-5.6-.9A49.25,49.25,0,0,1,42.35,22.67ZM34.2,30.85A19.84,19.84,0,0,1,28.85,27a20.46,20.46,0,0,1,10.5-4.87A50.41,50.41,0,0,0,34.2,30.85ZM45.35,22.1A20.4,20.4,0,0,1,55.85,27a19.51,19.51,0,0,1-5.35,3.88A50.17,50.17,0,0,0,45.35,22.1Zm-3,29.81a18,18,0,0,1,5.6.9A49.8,49.8,0,0,1,42.35,62a49.4,49.4,0,0,1-5.6-9.23A18.21,18.21,0,0,1,42.35,51.91Zm-3,10.69a20.36,20.36,0,0,1-10.5-4.88,19.34,19.34,0,0,1,5.35-3.88A49.55,49.55,0,0,0,39.35,62.6Zm11.14-8.75a19.77,19.77,0,0,1,5.36,3.88,20.46,20.46,0,0,1-10.5,4.87A49.82,49.82,0,0,0,50.49,53.85ZM26.92,28.91a22.28,22.28,0,0,0,6.24,4.5,26.27,26.27,0,0,0-1.74,8.94,26.27,26.27,0,0,0,1.74,8.94,22.28,22.28,0,0,0-6.24,4.5,20.38,20.38,0,0,1,0-26.88ZM64.21,76.5a1.37,1.37,0,1,1,1.36-1.36A1.36,1.36,0,0,1,64.21,76.5Zm15,5.47A2.74,2.74,0,1,1,82,79.23,2.74,2.74,0,0,1,79.23,82Z"/><path class="cls-4" d="M0,46.45H2.73v2.73H0Z"/><path class="cls-4" d="M82,46.45H84.7v2.73H82Z"/><path class="cls-4" d="M82,35.52H84.7v2.73H82Z"/><path class="cls-4" d="M0,35.52H2.73v2.73H0Z"/><path class="cls-4" d="M5.46,41H8.2v2.74H5.46Z"/><path class="cls-4" d="M10.93,41h5.46v2.74H10.93Z"/><path class="cls-4" d="M76.5,41h2.73v2.74H76.5Z"/><path class="cls-4" d="M68.31,41h5.46v2.74H68.31Z"/><circle class="cls-5" cx="20.51" cy="9.64" r="4.43"/><circle class="cls-5" cx="64.22" cy="9.64" r="4.43"/><circle class="cls-5" cx="20.51" cy="74.94" r="4.43"/><circle class="cls-5" cx="64.22" cy="74.94" r="4.43"/></g></g></svg>