<svg width="129" height="129" viewBox="0 0 129 129" fill="none" xmlns="http://www.w3.org/2000/svg">
<path d="M108.159 66.4425H89.0531C88.5379 66.4425 88.0437 66.2377 87.6794 65.8733C87.315 65.509 87.1104 65.015 87.1104 64.4997C87.1104 63.9845 87.315 63.4901 87.6794 63.1257C88.0437 62.7614 88.5379 62.5569 89.0531 62.5569H108.159C108.63 60.8392 109.707 59.3504 111.192 58.3671C112.677 57.3838 114.468 56.9725 116.233 57.2098C117.998 57.4471 119.618 58.317 120.79 59.6576C121.962 60.9982 122.609 62.7187 122.609 64.4997C122.609 66.2807 121.962 68.0008 120.79 69.3415C119.618 70.6821 117.998 71.552 116.233 71.7893C114.468 72.0266 112.677 71.6153 111.192 70.632C109.707 69.6486 108.63 68.1602 108.159 66.4425ZM111.784 64.4997C111.784 65.1859 111.988 65.8564 112.369 66.4269C112.75 66.9974 113.292 67.442 113.926 67.7045C114.56 67.9671 115.258 68.0358 115.931 67.9018C116.604 67.7679 117.222 67.4373 117.707 66.9521C118.192 66.4669 118.523 65.8489 118.657 65.1759C118.79 64.5029 118.722 63.8052 118.459 63.1713C118.196 62.5373 117.752 61.9956 117.181 61.6144C116.611 61.2332 115.94 61.0297 115.254 61.0297C114.334 61.0307 113.452 61.3966 112.802 62.047C112.151 62.6973 111.785 63.5792 111.784 64.499V64.4997Z" fill="#333333"/>
<path d="M6.39111 64.499C6.39102 62.7179 7.03717 60.9972 8.20962 59.6565C9.38206 58.3158 11.0012 57.446 12.7663 57.2086C14.5315 56.9713 16.3228 57.3825 17.8077 58.366C19.2927 59.3494 20.3703 60.8384 20.8407 62.5562H39.7562C40.2715 62.5562 40.7656 62.7607 41.13 63.125C41.4943 63.4893 41.699 63.9837 41.699 64.499C41.699 65.0142 41.4943 65.5082 41.13 65.8726C40.7656 66.2369 40.2715 66.4417 39.7562 66.4417H20.8403C20.3696 68.1592 19.2919 69.6473 17.8071 70.6305C16.3223 71.6136 14.5312 72.0247 12.7663 71.7874C11.0014 71.5501 9.38248 70.6807 8.21007 69.3403C7.03766 67.9999 6.39137 66.2798 6.39111 64.499ZM10.2767 64.499C10.2767 65.1851 10.4803 65.8557 10.8615 66.4262C11.2428 66.9967 11.7847 67.4413 12.4186 67.7038C13.0526 67.9663 13.7502 68.035 14.4231 67.9011C15.0961 67.7672 15.7143 67.4366 16.1994 66.9513C16.6846 66.4661 17.015 65.8481 17.1488 65.1751C17.2826 64.5022 17.2139 63.8045 16.9513 63.1705C16.6887 62.5366 16.244 61.9949 15.6735 61.6137C15.103 61.2324 14.4322 61.0289 13.746 61.0289C12.8261 61.03 11.9442 61.3961 11.2938 62.0466C10.6434 62.6971 10.2776 63.5791 10.2767 64.499Z" fill="#333333"/>
<path d="M83.7509 52.994C83.2356 52.994 82.7415 52.7896 82.3771 52.4252C82.0128 52.0609 81.8081 51.5665 81.8081 51.0512C81.8081 50.536 82.0128 50.042 82.3771 49.6776C82.7415 49.3133 83.2356 49.1085 83.7509 49.1085H92.934C94.1734 49.1085 95.0733 48.7508 95.7638 47.9819C97.0146 46.5916 97.3429 44.115 97.3724 42.3812C95.6549 41.9114 94.1661 40.8341 93.1824 39.3498C92.1987 37.8655 91.787 36.0749 92.0235 34.31C92.26 32.5451 93.1288 30.9258 94.4686 29.7529C95.8084 28.5799 97.5282 27.933 99.3089 27.9319C101.09 27.9308 102.81 28.5759 104.151 29.7472C105.492 30.9185 106.363 32.5367 106.602 34.3013C106.841 36.0659 106.431 37.8572 105.449 39.3426C104.467 40.8281 102.98 41.907 101.263 42.379C101.241 44.5739 100.833 48.1471 98.6632 50.5701C97.9392 51.363 97.0524 51.9898 96.0636 52.4081C95.0747 52.8265 94.0072 53.0262 92.934 52.9936L83.7509 52.994ZM95.8438 35.2867C95.844 35.9728 96.0476 36.6432 96.4288 37.2136C96.81 37.7839 97.3518 38.2283 97.9857 38.4908C98.6195 38.7532 99.317 38.822 99.9898 38.6881C100.663 38.5542 101.281 38.2238 101.766 37.7387C102.251 37.2536 102.581 36.6357 102.715 35.9629C102.849 35.29 102.78 34.5925 102.518 33.9587C102.256 33.3248 101.811 32.783 101.241 32.4018C100.67 32.0205 99.9997 31.8168 99.3136 31.8167C98.3937 31.8175 97.5117 32.1835 96.8612 32.834C96.2106 33.4844 95.8448 34.3668 95.8438 35.2867Z" fill="#333333"/>
<path d="M91.9571 93.7131C91.9592 92.101 92.4899 90.5342 93.468 89.2527C94.4461 87.9712 95.8175 87.0458 97.372 86.6186C97.3429 84.8849 97.0145 82.4074 95.7634 81.018C95.0729 80.2486 94.1726 79.891 92.9335 79.891L84.369 80.3733C83.8538 80.3733 83.3596 80.1685 82.9953 79.8041C82.631 79.4398 82.4263 78.9458 82.4263 78.4305C82.4263 77.9153 82.631 77.4213 82.9953 77.0569C83.3596 76.6926 83.8538 76.4877 84.369 76.4877L92.9335 76.007C94.0068 75.974 95.0745 76.1737 96.0634 76.5921C97.0523 77.0105 97.939 77.6377 98.6628 78.4309C100.833 80.8527 101.241 84.4271 101.262 86.622C102.584 86.9854 103.778 87.7108 104.709 88.7166C105.64 89.7223 106.272 90.9684 106.533 92.3141C106.794 93.6598 106.673 95.0516 106.185 96.3325C105.697 97.6134 104.861 98.7325 103.771 99.5635C102.681 100.394 101.38 100.904 100.016 101.035C98.6514 101.166 97.2775 100.913 96.0491 100.305C94.8206 99.6971 93.7866 98.7576 93.0637 97.593C92.3407 96.4284 91.9576 95.085 91.9575 93.7143L91.9571 93.7131ZM95.8427 93.7131C95.8428 94.3992 96.0464 95.0696 96.4276 95.64C96.8089 96.2103 97.3506 96.6551 97.9845 96.9176C98.6183 97.18 99.3158 97.2484 99.9886 97.1145C100.661 96.9806 101.28 96.6506 101.765 96.1655C102.25 95.6804 102.58 95.0622 102.714 94.3893C102.848 93.7165 102.779 93.0189 102.517 92.3851C102.254 91.7512 101.81 91.2094 101.239 90.8282C100.669 90.447 99.9985 90.2436 99.3124 90.2435C98.3926 90.2447 97.5109 90.6107 96.8606 91.2611C96.2102 91.9116 95.8445 92.7933 95.8434 93.7131H95.8427Z" fill="#333333"/>
<path d="M30.2083 50.5699C28.0266 48.1336 27.626 44.5349 27.6085 42.3431C25.9 41.8401 24.432 40.7344 23.4769 39.2312C22.5218 37.728 22.1445 35.9293 22.4149 34.169C22.6854 32.4087 23.5852 30.8065 24.9475 29.6593C26.3098 28.5121 28.042 27.8978 29.8227 27.9309C31.6034 27.9639 33.3116 28.6418 34.6303 29.8387C35.9491 31.0357 36.7888 32.6708 36.9937 34.4399C37.1986 36.2091 36.7548 37.9925 35.7445 39.4593C34.7343 40.926 33.2262 41.9763 31.5003 42.4155C31.5325 44.1473 31.8643 46.6007 33.1073 47.9813C33.7989 48.7514 34.6984 49.1078 35.9368 49.1078L45.3518 48.6259C45.8671 48.6259 46.3612 48.8308 46.7256 49.1951C47.0899 49.5595 47.2946 50.0535 47.2946 50.5687C47.2946 51.084 47.0899 51.5784 46.7256 51.9427C46.3612 52.307 45.8671 52.5115 45.3518 52.5115L35.9368 52.9949C34.8636 53.0272 33.796 52.8273 32.8073 52.4087C31.8186 51.99 30.932 51.363 30.2083 50.5699ZM26.2175 35.288C26.2179 35.974 26.4218 36.6443 26.8032 37.2144C27.1847 37.7846 27.7267 38.2291 28.3606 38.4913C28.9945 38.7535 29.6919 38.8216 30.3647 38.6875C31.0374 38.5533 31.6554 38.2229 32.1403 37.7377C32.6252 37.2525 32.9553 36.6344 33.089 35.9615C33.2227 35.2886 33.1538 34.591 32.8912 33.9573C32.6286 33.3235 32.184 32.7822 31.6135 32.4012C31.0431 32.0201 30.3725 31.8164 29.6865 31.8164C28.7663 31.8175 27.8842 32.1836 27.2337 32.8345C26.5832 33.4853 26.2176 34.3678 26.2171 35.288H26.2175Z" fill="#333333"/>
<path d="M22.3314 93.7131C22.3332 92.1254 22.848 90.5807 23.7989 89.3093C24.7499 88.0378 26.0862 87.1076 27.6088 86.6573C27.6259 84.4655 28.0261 80.8656 30.2086 78.4298C30.9323 77.6366 31.8191 77.0093 32.808 76.591C33.7969 76.1726 34.8646 75.9729 35.9378 76.0058H45.0261C45.5414 76.0058 46.0355 76.2107 46.3999 76.575C46.7642 76.9394 46.9689 77.4334 46.9689 77.9486C46.9689 78.4639 46.7642 78.9583 46.3999 79.3226C46.0355 79.6869 45.5414 79.8914 45.0261 79.8914H35.9382C34.6987 79.8914 33.8012 80.2494 33.1084 81.0183C31.865 82.3989 31.5332 84.8534 31.5009 86.5852C32.835 86.9249 34.0469 87.6322 34.9989 88.6266C35.9508 89.6211 36.6046 90.8625 36.8859 92.2101C37.1671 93.5577 37.0644 94.9572 36.5896 96.2494C36.1148 97.5415 35.2869 98.6746 34.2 99.5194C33.1132 100.364 31.811 100.887 30.4417 101.029C29.0723 101.17 27.6908 100.924 26.4542 100.319C25.2176 99.7144 24.1756 98.7748 23.4467 97.607C22.7178 96.4392 22.3312 95.0901 22.3311 93.7135L22.3314 93.7131ZM26.217 93.7131C26.217 94.3994 26.4205 95.0701 26.8018 95.6407C27.183 96.2113 27.7249 96.6561 28.3589 96.9187C28.993 97.1813 29.6906 97.2503 30.3637 97.1164C31.0368 96.9825 31.655 96.6519 32.1403 96.1666C32.6256 95.6814 32.956 95.0631 33.0899 94.3901C33.2238 93.717 33.155 93.0195 32.8924 92.3855C32.6298 91.7514 32.1851 91.2095 31.6145 90.8282C31.0439 90.4469 30.373 90.2435 29.6868 90.2435C28.7668 90.2445 27.8847 90.6103 27.2341 91.2608C26.5835 91.9112 26.2175 92.7931 26.2162 93.7131H26.217Z" fill="#333333"/>
<path d="M64.1747 93.6335C58.3807 93.6426 52.7174 91.9128 47.9173 88.6678C43.2427 85.5118 39.5832 81.0681 37.3823 75.875C35.4962 71.4191 34.7535 66.5627 35.2217 61.7468C35.6899 56.9309 37.3544 52.3084 40.0635 48.2994C43.2192 43.6241 47.6631 39.9645 52.8569 37.7644C57.3128 35.8788 62.1692 35.1366 66.9849 35.6048C71.8006 36.073 76.4229 37.7368 80.4321 40.4454C85.1068 43.6015 88.7663 48.0454 90.9671 53.2386C92.8532 57.6944 93.5959 62.5508 93.1277 67.3666C92.6595 72.1824 90.9951 76.8049 88.2859 80.8138C85.1302 85.4889 80.6862 89.1484 75.4925 91.3484C71.912 92.8638 68.0626 93.641 64.1747 93.6335ZM55.071 83.0431C57.9813 84.5277 61.2009 85.304 64.468 85.309C67.7351 85.3139 70.9571 84.5472 73.8719 83.0714L73.9311 83.1228C73.9699 83.0781 74.0116 83.0298 74.057 82.9757C77.4438 81.2211 80.2836 78.5702 82.2668 75.312C84.2499 72.0539 85.3003 68.3136 85.3031 64.4993C85.3056 60.6294 84.2243 56.836 82.1818 53.549C80.1972 50.355 77.3892 47.7544 74.0525 46.0204C74.0354 45.9986 74.0195 45.9773 74.0039 45.9559L73.9933 45.9415L73.9546 45.9711C71.0189 44.4679 67.7673 43.6861 64.4692 43.6904C61.171 43.6947 57.9215 44.485 54.9898 45.9959L54.9169 45.9411L54.8987 45.9656L54.8855 45.9832C54.8594 46.0186 54.8318 46.0554 54.8058 46.0923C51.5054 47.8387 48.7321 50.4357 46.7729 53.6143C44.9333 56.5997 43.8806 60.0026 43.7126 63.5052C43.5447 67.0078 44.267 70.4959 45.8125 73.6436L45.7233 73.7438C45.801 73.8133 45.8838 73.8834 45.9658 73.951C47.9214 77.7646 51.0001 80.8863 54.786 82.8949C54.8498 82.9726 54.9124 83.0461 54.978 83.1215L55.0672 83.042L55.071 83.0431ZM65.7107 82.7551V78.3527C68.0263 78.2889 70.3348 78.0635 72.6189 77.6779C73.175 77.5827 73.7237 77.477 74.2506 77.3639C73.8285 78.6533 73.2172 79.8728 72.4368 80.9825C70.3303 82.0025 68.0463 82.6043 65.7107 82.7551ZM63.2018 82.7492C60.8454 82.5863 58.5434 81.9636 56.4264 80.9161C55.7004 79.8703 55.1251 78.7277 54.717 77.5218C57.5142 78.0568 60.3536 78.3413 63.2014 78.3719V82.7488L63.2018 82.7492ZM76.6122 78.2C76.7828 77.7135 76.9493 77.186 77.1059 76.6312C77.6336 76.4707 78.142 76.2993 78.6184 76.1225C78.0052 76.8664 77.3348 77.5612 76.6134 78.2006L76.6122 78.2ZM52.2616 78.0898C51.6858 77.5704 51.1432 77.0156 50.6368 76.4284C51.0308 76.5655 51.4435 76.7004 51.8632 76.8243C51.9867 77.2517 52.1209 77.6791 52.262 78.089L52.2616 78.0898ZM63.2018 75.8824C60.0754 75.8577 56.9611 75.4896 53.9152 74.7844C53.244 71.8107 52.8927 68.7736 52.8664 65.7251H63.2033V75.882L63.2018 75.8824ZM65.7107 75.8583V65.7251H76.0484C76.0211 68.7118 75.6833 71.6876 75.0402 74.6044C74.1399 74.8336 73.1821 75.0352 72.1932 75.205C70.0497 75.5697 67.8839 75.788 65.7107 75.8583ZM51.1786 73.9603C50.0379 73.5604 48.956 73.0096 47.9613 72.3228C46.9762 70.2521 46.3928 68.0132 46.2428 65.7251H50.3738C50.4055 68.488 50.6747 71.2432 51.179 73.9599L51.1786 73.9603ZM77.7688 73.766C78.2526 71.113 78.5098 68.4238 78.5379 65.7272H82.7532C82.6087 67.9317 82.0625 70.0912 81.1417 72.0995C80.0871 72.7863 78.9551 73.3462 77.7692 73.7675L77.7688 73.766ZM82.7494 63.2175H78.5174C78.4539 60.9137 78.2296 58.6171 77.8466 56.3444L77.8386 56.2949L77.8299 56.2456C79.1581 56.7153 80.4139 57.3693 81.5602 58.1883L81.635 58.0893C82.2523 59.7361 82.628 61.4638 82.7502 63.2183L82.7494 63.2175ZM76.0241 63.2175H65.7099V54.1288C67.8833 54.1995 70.0491 54.4177 72.1928 54.782C73.205 54.9569 74.1883 55.1654 75.1142 55.4036C75.2051 55.8372 75.2925 56.2972 75.3749 56.7724C75.7367 58.904 75.9537 61.0578 76.0245 63.2187L76.0241 63.2175ZM63.2018 63.2175H52.8873C52.9579 61.0565 53.175 58.9026 53.5373 56.7709C53.6247 56.2619 53.7244 55.7413 53.8355 55.2233C56.9065 54.5049 60.048 54.1302 63.2018 54.1062V63.2175ZM50.3932 63.2175H46.2477C46.3685 61.4658 46.7428 59.7408 47.3591 58.0967L47.3842 58.1252C48.4938 57.2169 49.7569 56.5146 51.1141 56.0517L51.0887 56.1978L51.0633 56.3438C50.6803 58.6164 50.4561 60.9131 50.392 63.2168L50.3932 63.2175ZM79.6675 54.2808C78.9149 53.9622 78.0942 53.664 77.2277 53.3948C76.9806 52.4172 76.6966 51.4769 76.3823 50.6C77.6369 51.6744 78.7419 52.9122 79.6679 54.28L79.6675 54.2808ZM49.5387 53.9791C50.3887 52.7745 51.38 51.6762 52.4915 50.7075C52.2141 51.4928 51.9595 52.3326 51.7341 53.2041C50.9508 53.44 50.2124 53.7011 49.539 53.9812L49.5387 53.9791ZM74.4228 52.66C73.8338 52.5318 73.2274 52.4141 72.6193 52.3103C70.3351 51.925 68.0267 51.6995 65.7111 51.6355V46.2435C66.7149 45.971 67.7674 45.9285 68.7899 46.1196C69.8124 46.3107 70.7784 46.7304 71.616 47.3471C72.4537 47.9639 73.141 48.7619 73.6271 49.6815C74.1132 50.6011 74.3854 51.6186 74.4232 52.6581L74.4228 52.66ZM54.5379 52.5019C54.5929 51.4787 54.8763 50.4809 55.3673 49.5815C55.8584 48.6822 56.5444 47.9042 57.3754 47.3046C58.2064 46.7051 59.1613 46.2993 60.1696 46.117C61.178 45.9346 62.2142 45.9804 63.2026 46.2509V51.6159C60.2933 51.6461 57.393 51.9425 54.5379 52.5019Z" fill="url(#paint0_linear_20_3)"/>
<defs>
<linearGradient id="paint0_linear_20_3" x1="86.108" y1="41.2268" x2="59.9352" y2="74.9102" gradientUnits="userSpaceOnUse">
<stop stop-color="#F9CFAD"/>
<stop offset="1" stop-color="#EF8632"/>
</linearGradient>
</defs>
</svg>
