<svg width="117" height="76" viewBox="0 0 117 76" fill="none" xmlns="http://www.w3.org/2000/svg">
<g id="Group 663">
<path id="Ellipse 746" d="M43.8156 75.7306C62.4712 75.7306 77.5945 60.49 77.5945 41.6897C77.5945 22.8895 62.4712 7.64893 43.8156 7.64893C25.16 7.64893 10.0366 22.8895 10.0366 41.6897C10.0366 60.49 25.16 75.7306 43.8156 75.7306Z" fill="url(#paint0_linear_1_114)"/>
<path id="Ellipse 747" d="M36.2716 0.269493C43.4036 0.269493 50.3755 2.40078 56.3055 6.39384C62.2356 10.3869 66.8575 16.0624 69.5868 22.7026C72.3161 29.3428 73.0303 36.6495 71.6389 43.6987C70.2475 50.7479 66.8131 57.223 61.77 62.3052C56.7269 67.3874 50.3016 70.8485 43.3066 72.2506C36.3116 73.6528 29.0611 72.9332 22.472 70.1827C15.8828 67.4322 10.251 62.7745 6.28866 56.7984C2.32632 50.8224 0.211426 43.7965 0.211426 36.6092C0.222224 26.9746 4.02488 17.7378 10.7851 10.9252C17.5454 4.1125 26.7112 0.280375 36.2716 0.269493ZM36.2716 69.0328C42.6351 69.0328 48.8558 67.1312 54.1469 63.5684C59.438 60.0056 63.5619 54.9416 65.9971 49.0168C68.4323 43.0921 69.0695 36.5727 67.828 30.283C66.5865 23.9934 63.5221 18.216 59.0224 13.6814C54.5226 9.14684 48.7896 6.05878 42.5483 4.80773C36.307 3.55669 29.8378 4.19885 23.9586 6.65301C18.0795 9.10717 13.0545 13.2631 9.51918 18.5953C5.98384 23.9274 4.09689 30.1963 4.09697 36.6092C4.10674 45.2055 7.4997 53.4469 13.5315 59.5254C19.5633 65.6039 27.7414 69.0231 36.2716 69.0328Z" fill="#333333"/>
<path id="Ellipse 748" d="M80.7484 0.269494V4.18516L80.1011 4.19142L80.0234 0.275759L80.7484 0.269494ZM80.7484 0.269494C82.1172 0.269273 83.4849 0.346795 84.845 0.501692L84.4078 4.39229C83.1929 4.25403 81.9711 4.18487 80.7484 4.18516V0.269494ZM73.9075 0.923018L74.6407 4.7682C73.4415 4.99976 72.2564 5.30046 71.0913 5.6688L69.9256 1.93326C71.2327 1.52005 72.5622 1.18275 73.9075 0.923018ZM90.8788 1.72338C92.1937 2.11059 93.4854 2.57353 94.7476 3.10992L93.2381 6.7182C92.1128 6.24012 90.9612 5.82751 89.7889 5.48241L90.8788 1.72338ZM64.2325 4.29636L66.0145 7.77621C64.9288 8.34091 63.8759 8.96752 62.8609 9.65299L60.6979 6.40025C61.8355 5.63184 63.0156 4.9294 64.2325 4.29636ZM100.19 5.99967C101.343 6.74486 102.452 7.55541 103.513 8.42738L101.059 11.4628C100.111 10.6848 99.1209 9.96156 98.0923 9.29666L100.19 5.99967ZM55.8988 10.2756L58.5767 13.1129C57.6912 13.9618 56.8541 14.8606 56.0694 15.8049L53.0904 13.2906C53.9693 12.233 54.907 11.2264 55.8988 10.2756ZM107.936 12.7358C108.836 13.7755 109.676 14.8658 110.453 16.0014L107.255 18.2244C106.561 17.2106 105.811 16.2373 105.007 15.3092L107.936 12.7358ZM49.5557 18.3649L52.9143 20.3333C52.3002 21.397 51.7469 22.4952 51.2572 23.6225L47.6976 22.0543C48.2467 20.7898 48.8671 19.558 49.5557 18.3649ZM113.501 21.3882C114.076 22.6415 114.578 23.9269 115.006 25.2381L111.315 26.4625C110.933 25.2935 110.485 24.1474 109.973 23.0301L113.501 21.3882ZM45.7238 27.9293L49.4978 28.8617C49.2071 30.0573 48.9845 31.2687 48.831 32.4899L44.9762 31.9977C45.1482 30.6283 45.3978 29.27 45.7238 27.9293ZM116.422 31.2745C116.621 32.6393 116.744 34.0143 116.788 35.393L112.905 35.5218C112.865 34.291 112.756 33.0634 112.578 31.845L116.422 31.2745ZM48.6037 38.022C48.6558 39.2525 48.7771 40.479 48.967 41.6956L45.1289 42.3049C44.916 40.942 44.7801 39.568 44.7217 38.1896L48.6037 38.022ZM112.623 41.0515L116.473 41.5829C116.288 42.9503 116.024 44.3059 115.685 45.643L111.921 44.6723C112.223 43.4799 112.458 42.271 112.623 41.0515ZM50.2834 47.0644C50.6771 48.2294 51.1368 49.3708 51.6601 50.4828L48.1464 52.1606C47.5601 50.9133 47.0452 49.6331 46.6042 48.3264L50.2834 47.0644ZM110.109 49.8919L113.653 51.4973C113.091 52.7561 112.459 53.9814 111.758 55.1675L108.419 53.165C109.044 52.1073 109.608 51.0145 110.108 49.8919H110.109ZM54.4293 55.2607C55.1332 56.2674 55.8931 57.2331 56.7055 58.1532L53.8026 60.7559C52.8926 59.7253 52.0413 58.6435 51.2529 57.5157L54.4293 55.2607ZM105.222 57.6621L108.175 60.2073C107.286 61.2559 106.339 62.253 105.338 63.1938L102.688 60.3299C103.581 59.4895 104.426 58.5988 105.219 57.6621H105.222ZM60.6882 61.9608C61.643 62.7292 62.6403 63.4423 63.6754 64.0968L61.6106 67.4137C60.4508 66.6805 59.3334 65.8814 58.2636 65.0205L60.6882 61.9608ZM98.3651 63.7451L100.496 67.0198C99.3504 67.7765 98.1634 68.4668 96.9403 69.0873L95.1918 65.5898C96.2835 65.0363 97.343 64.4206 98.3651 63.7455V63.7451ZM68.5575 66.6247C69.6875 67.0913 70.8432 67.4921 72.0188 67.8252L70.967 71.5949C69.6483 71.2211 68.352 70.7713 67.0845 70.2479L68.5575 66.6247ZM90.0978 67.6428L91.2246 71.3901C89.9137 71.7905 88.5811 72.1149 87.2334 72.3615L86.5387 68.5089C87.7405 68.2891 88.9288 67.9997 90.0978 67.6428ZM77.4104 68.8602C78.5194 68.9751 79.6335 69.0326 80.7484 69.0324L81.1106 72.9481H80.7484C79.5005 72.9484 78.2534 72.8841 77.0121 72.7555L77.4104 68.8602Z" fill="#333333"/>
</g>
<defs>
<linearGradient id="paint0_linear_1_114" x1="61.3806" y1="15.8868" x2="40.0659" y2="50.189" gradientUnits="userSpaceOnUse">
<stop stop-color="#F9CFAD"/>
<stop offset="1" stop-color="#EF8632"/>
</linearGradient>
</defs>
</svg>
