<svg width="129" height="130" viewBox="0 0 129 130" fill="none" xmlns="http://www.w3.org/2000/svg">
<g clip-path="url(#clip0_1_111)">
<path d="M49.8156 102.731C68.4712 102.731 83.5945 87.49 83.5945 68.6897C83.5945 49.8895 68.4712 34.6489 49.8156 34.6489C31.16 34.6489 16.0366 49.8895 16.0366 68.6897C16.0366 87.49 31.16 102.731 49.8156 102.731Z" fill="url(#paint0_linear_1_111)"/>
<path d="M42.2716 27.2695C49.4036 27.2695 56.3755 29.4008 62.3055 33.3938C68.2356 37.3869 72.8575 43.0624 75.5868 49.7026C78.3161 56.3428 79.0303 63.6495 77.6389 70.6987C76.2475 77.7479 72.8131 84.223 67.77 89.3052C62.7269 94.3874 56.3016 97.8485 49.3066 99.2506C42.3116 100.653 35.0611 99.9332 28.472 97.1827C21.8828 94.4322 16.251 89.7745 12.2887 83.7984C8.32632 77.8224 6.21143 70.7965 6.21143 63.6092C6.22222 53.9746 10.0249 44.7378 16.7851 37.9252C23.5454 31.1125 32.7112 27.2804 42.2716 27.2695ZM42.2716 96.0328C48.6351 96.0328 54.8558 94.1312 60.1469 90.5684C65.438 87.0056 69.5619 81.9416 71.9971 76.0168C74.4323 70.0921 75.0695 63.5727 73.828 57.283C72.5865 50.9934 69.5221 45.216 65.0224 40.6814C60.5226 36.1468 54.7896 33.0588 48.5483 31.8077C42.307 30.5567 35.8378 31.1989 29.9586 33.653C24.0795 36.1072 19.0545 40.2631 15.5192 45.5953C11.9838 50.9274 10.0969 57.1963 10.097 63.6092C10.1067 72.2055 13.4997 80.4469 19.5315 86.5254C25.5633 92.6039 33.7414 96.0231 42.2716 96.0328Z" fill="#333333"/>
<path d="M86.7484 27.2695V31.1852L86.1011 31.1914L86.0234 27.2758L86.7484 27.2695ZM86.7484 27.2695C88.1172 27.2693 89.4849 27.3468 90.845 27.5017L90.4078 31.3923C89.1929 31.254 87.9711 31.1849 86.7484 31.1852V27.2695ZM79.9075 27.923L80.6407 31.7682C79.4415 31.9998 78.2564 32.3005 77.0913 32.6688L75.9256 28.9333C77.2327 28.52 78.5622 28.1827 79.9075 27.923ZM96.8788 28.7234C98.1937 29.1106 99.4854 29.5735 100.748 30.1099L99.2381 33.7182C98.1128 33.2401 96.9612 32.8275 95.7889 32.4824L96.8788 28.7234ZM70.2325 31.2964L72.0145 34.7762C70.9288 35.3409 69.8759 35.9675 68.8609 36.653L66.6979 33.4002C67.8355 32.6318 69.0156 31.9294 70.2325 31.2964ZM106.19 32.9997C107.343 33.7449 108.452 34.5554 109.513 35.4274L107.059 38.4628C106.111 37.6848 105.121 36.9616 104.092 36.2967L106.19 32.9997ZM61.8988 37.2756L64.5767 40.1129C63.6912 40.9618 62.8541 41.8606 62.0694 42.8049L59.0904 40.2906C59.9693 39.233 60.907 38.2264 61.8988 37.2756ZM113.936 39.7358C114.836 40.7755 115.676 41.8658 116.453 43.0014L113.255 45.2244C112.561 44.2106 111.811 43.2373 111.007 42.3092L113.936 39.7358ZM55.5557 45.3649L58.9143 47.3333C58.3002 48.397 57.7469 49.4952 57.2572 50.6225L53.6976 49.0543C54.2467 47.7898 54.8671 46.558 55.5557 45.3649ZM119.501 48.3882C120.076 49.6415 120.578 50.9269 121.006 52.2381L117.315 53.4625C116.933 52.2935 116.485 51.1474 115.973 50.0301L119.501 48.3882ZM51.7238 54.9293L55.4978 55.8617C55.2071 57.0573 54.9845 58.2687 54.831 59.4899L50.9762 58.9977C51.1482 57.6283 51.3978 56.27 51.7238 54.9293ZM122.422 58.2745C122.621 59.6393 122.744 61.0143 122.788 62.393L118.905 62.5218C118.865 61.291 118.756 60.0634 118.578 58.845L122.422 58.2745ZM54.6037 65.022C54.6558 66.2525 54.7771 67.479 54.967 68.6956L51.1289 69.3049C50.916 67.942 50.7801 66.568 50.7217 65.1896L54.6037 65.022ZM118.623 68.0515L122.473 68.5829C122.288 69.9503 122.024 71.3059 121.685 72.643L117.921 71.6723C118.223 70.4799 118.458 69.271 118.623 68.0515ZM56.2834 74.0644C56.6771 75.2294 57.1368 76.3708 57.6601 77.4828L54.1464 79.1606C53.5601 77.9133 53.0452 76.6331 52.6042 75.3264L56.2834 74.0644ZM116.109 76.8919L119.653 78.4973C119.091 79.7561 118.459 80.9814 117.758 82.1675L114.419 80.165C115.044 79.1073 115.608 78.0145 116.108 76.8919H116.109ZM60.4293 82.2607C61.1332 83.2674 61.8931 84.2331 62.7055 85.1532L59.8026 87.7559C58.8926 86.7253 58.0413 85.6435 57.2529 84.5157L60.4293 82.2607ZM111.222 84.6621L114.175 87.2073C113.286 88.2559 112.339 89.253 111.338 90.1938L108.688 87.3299C109.581 86.4895 110.426 85.5988 111.219 84.6621H111.222ZM66.6882 88.9608C67.643 89.7292 68.6403 90.4423 69.6754 91.0968L67.6106 94.4137C66.4508 93.6805 65.3334 92.8814 64.2636 92.0205L66.6882 88.9608ZM104.365 90.7451L106.496 94.0198C105.35 94.7765 104.163 95.4668 102.94 96.0873L101.192 92.5898C102.283 92.0363 103.343 91.4206 104.365 90.7455V90.7451ZM74.5575 93.6247C75.6875 94.0913 76.8432 94.4921 78.0188 94.8252L76.967 98.5949C75.6483 98.2211 74.352 97.7713 73.0845 97.2479L74.5575 93.6247ZM96.0978 94.6428L97.2246 98.3901C95.9137 98.7905 94.5811 99.1149 93.2334 99.3615L92.5387 95.5089C93.7405 95.2891 94.9288 94.9997 96.0978 94.6428ZM83.4104 95.8602C84.5194 95.9751 85.6335 96.0326 86.7484 96.0324L87.1106 99.9481H86.7484C85.5005 99.9484 84.2534 99.8841 83.0121 99.7555L83.4104 95.8602Z" fill="#333333"/>
</g>
<defs>
<linearGradient id="paint0_linear_1_111" x1="67.3806" y1="42.8868" x2="46.0659" y2="77.189" gradientUnits="userSpaceOnUse">
<stop stop-color="#F9CFAD"/>
<stop offset="1" stop-color="#EF8632"/>
</linearGradient>
<clipPath id="clip0_1_111">
<rect width="129" height="130" fill="white"/>
</clipPath>
</defs>
</svg>
